<svg width="193" height="52" viewBox="0 0 193 52" fill="none" xmlns="http://www.w3.org/2000/svg">
<path d="M11.0024 52L0.741699 41.7778V11.0342L11.0024 0.812012H17.7915V52H11.0024ZM31.8325 21.3335V11.0342H20.4917V0.812012H38.6602L48.8823 11.0342V21.3335H31.8325ZM20.4917 52V41.7778H31.8325V34.2944H48.8823V41.7778L38.6602 52H20.4917ZM82.3262 52V21.2563H58.063V16.1646L63.1934 11.0342H88.7681L98.9902 21.2563V52H82.3262ZM61.4961 52L54.6299 45.2495V34.9888L61.4961 28.1611H79.626V35.2588H70.8311V42.4336H79.626V46.9468L74.5342 52H61.4961ZM106.705 52V11.0342H123.755V52H106.705ZM133.746 31.2085V21.2563H126.494V16.7817L132.203 11.0342H142.541L150.834 20.6006V31.2085H133.746Z" fill="black"/>
<path d="M154.151 52V42.0864L180.768 11.0342H192.533V21.2563L165.569 52H154.151ZM154.537 21.2563V11.0342H177.566L168.732 21.2563H154.537ZM168.732 52L177.797 41.7778H192.571V52H168.732Z" fill="#0B538E"/>
</svg>
