<svg width="329" height="35" viewBox="0 0 329 35" fill="none" xmlns="http://www.w3.org/2000/svg">
<path d="M15.424 0.399998C19.648 0.399998 23.12 1.264 25.84 2.992C28.56 4.688 29.952 7.216 30.016 10.576V11.152H20.08V10.96C20.08 10 19.728 9.2 19.024 8.56C18.32 7.92 17.248 7.6 15.808 7.6C14.4 7.6 13.312 7.808 12.544 8.224C11.808 8.64 11.44 9.152 11.44 9.76C11.44 10.624 11.952 11.264 12.976 11.68C14 12.096 15.648 12.528 17.92 12.976C20.576 13.52 22.752 14.096 24.448 14.704C26.176 15.28 27.68 16.24 28.96 17.584C30.24 18.928 30.896 20.752 30.928 23.056C30.928 26.96 29.6 29.856 26.944 31.744C24.32 33.632 20.8 34.576 16.384 34.576C11.232 34.576 7.216 33.712 4.336 31.984C1.488 30.256 0.0640001 27.2 0.0640001 22.816H10.096C10.096 24.48 10.528 25.6 11.392 26.176C12.256 26.72 13.6 26.992 15.424 26.992C16.768 26.992 17.872 26.848 18.736 26.56C19.632 26.272 20.08 25.68 20.08 24.784C20.08 23.984 19.584 23.392 18.592 23.008C17.632 22.592 16.048 22.16 13.84 21.712C11.152 21.136 8.928 20.544 7.168 19.936C5.408 19.296 3.872 18.256 2.56 16.816C1.248 15.376 0.592 13.424 0.592 10.96C0.592 7.344 1.984 4.688 4.768 2.992C7.584 1.264 11.136 0.399998 15.424 0.399998ZM58.4646 34V21.472H46.8006V34H36.1926V0.975999H46.8006V13.024H58.4646V0.975999H69.0726V34H58.4646ZM92.593 0.399998C98.289 0.399998 102.689 1.856 105.793 4.768C108.897 7.68 110.449 11.92 110.449 17.488C110.449 23.056 108.897 27.296 105.793 30.208C102.689 33.12 98.289 34.576 92.593 34.576C86.897 34.576 82.497 33.136 79.393 30.256C76.321 27.344 74.785 23.088 74.785 17.488C74.785 11.888 76.321 7.648 79.393 4.768C82.497 1.856 86.897 0.399998 92.593 0.399998ZM92.593 8.32C90.321 8.32 88.593 9.008 87.409 10.384C86.225 11.76 85.633 13.616 85.633 15.952V19.024C85.633 21.36 86.225 23.216 87.409 24.592C88.593 25.968 90.321 26.656 92.593 26.656C94.865 26.656 96.593 25.968 97.777 24.592C98.993 23.216 99.601 21.36 99.601 19.024V15.952C99.601 13.616 98.993 11.76 97.777 10.384C96.593 9.008 94.865 8.32 92.593 8.32ZM134.689 0.975999C136.737 0.975999 138.561 1.456 140.161 2.416C141.761 3.344 143.009 4.64 143.905 6.304C144.801 7.936 145.249 9.776 145.249 11.824V12.448C145.249 14.496 144.801 16.352 143.905 18.016C143.009 19.68 141.761 20.992 140.161 21.952C138.561 22.88 136.737 23.344 134.689 23.344H126.769V34H116.161V0.975999H134.689ZM126.769 15.616H131.137C132.257 15.616 133.089 15.328 133.633 14.752C134.209 14.176 134.497 13.392 134.497 12.4V12.016C134.497 10.992 134.209 10.208 133.633 9.664C133.089 9.088 132.257 8.8 131.137 8.8H126.769V15.616Z" fill="#466D4E"/>
<path d="M150.802 0.975999H177.49V8.896H161.41V14.56H175.234V22.144H161.41V34H150.802V0.975999ZM183.298 34V0.975999H193.906V34H183.298ZM225.09 34L211.218 17.968V34H201.474V0.975999H210.738L224.61 17.248V0.975999H234.354V34H225.09ZM241.938 34V0.975999H252.546V34H241.938ZM279.123 9.424V34H268.515V9.424H257.667V0.975999H289.923V9.424H279.123ZM315.251 34H304.643V21.184L291.539 0.975999H303.731L310.067 11.968H310.259L316.595 0.975999H328.163L315.251 21.184V34Z" fill="black"/>
</svg>
