<svg width="116" height="52" viewBox="0 0 116 52" fill="none" xmlns="http://www.w3.org/2000/svg">
<path d="M11.0024 52L0.741699 41.7778V11.0342L11.0024 0.812012H17.7915V52H11.0024ZM31.8325 21.3335V11.0342H20.4917V0.812012H38.6602L48.8823 11.0342V21.3335H31.8325ZM20.4917 52V41.7778H31.8325V34.2944H48.8823V41.7778L38.6602 52H20.4917ZM72.8369 0.812012V12.77L66.0479 22.9922H55.7485L60.5703 12.77H54.0898V0.812012H72.8369Z" fill="white"/>
<path d="M77.543 52V42.0864L104.159 11.0342H115.924V21.2563L88.9609 52H77.543ZM77.9287 21.2563V11.0342H100.958L92.124 21.2563H77.9287ZM92.124 52L101.189 41.7778H115.963V52H92.124Z" fill="#0B538E"/>
</svg>
